<svg width="24" height="25" viewBox="0 0 24 25" fill="none" xmlns="http://www.w3.org/2000/svg">
<path d="M11.9982 0C9.61119 2.417 9.59619 6.33628 11.9982 8.73828L15.6662 12.4062L13.4122 14.6602C15.1493 16.3982 15.9298 18.7569 15.7638 21.0469L20.0353 16.7754L23.7111 13.0996C24.0951 12.7166 24.0941 12.0959 23.7111 11.7129L16.3673 4.36914L11.9982 0ZM8.23256 3.76562L3.96108 8.03711L3.83803 8.16211L0.28725 11.7109C-0.09575 12.0949 -0.09575 12.7156 0.28725 13.0996L10.965 23.7773L11.9982 24.8125C14.3852 22.3955 14.4002 18.4762 11.9982 16.0742L8.33022 12.4062L10.5841 10.1523C8.84712 8.41434 8.06656 6.05562 8.23256 3.76562Z" fill="white"/>
</svg>
